# xmcd
#
# Track frame offsets:
#	150
#	28505
#	58802
#	87549
#	120478
#	145767
#	177190
#	206728
#
# Disc length: 2969 seconds
#
# Revision: 1
# Processed by: cddbd v1.5.2PL0 Copyright (c) Steve Scherf et al.
# Submitted via: audiograbber 1.83.01
#
DISCID=6e0b9708
DTITLE=Cornelia Funke - Gespensterjäger
DYEAR=2015
DGENRE=Kinder
TTITLE0=12 Wir brauchen Fjörsens ungekürzte Originalausgabe!
TTITLE1=13 Schön und friedlich ...
TTITLE2=14 Einen Anwalt?
TTITLE3=15 Der arme Hugo in seinem Gefängnis ...
TTITLE4=16 Tom zögert ...
TTITLE5=17 Und dann zeigt sich das UEG ...
TTITLE6=18 Im Inneren des UEGs ist es still ...
TTITLE7=19 Wenn Sie mich jetzt entschuldigen ...
EXTD=
EXTT0=
EXTT1=
EXTT2=
EXTT3=
EXTT4=
EXTT5=
EXTT6=
EXTT7=
PLAYORDER=
